<svg xmlns="http://www.w3.org/2000/svg" viewBox="50 50 165 150">
  <defs>
    <style>
      .cls-1{fill:#fff;}.cls-2{fill:#575756;}.cls-3{fill:#21bb42;stroke:#fff;stroke-miterlimit:10;stroke-width:4px;}
    </style>
  </defs>
  <title>Ресурс 5</title>
  <g id="Слой_2">
    <g id="Layer_1">
<!--      <circle class="cls-1" cx="134.1" cy="134" r="89.4" transform="translate(-4.29 263.57) rotate(-88.09)"/>-->
      <path class="cls-2"
            d="M67.9,161.3V168c0,1.9,1.1,3.4,3.3,4.7a15.19,15.19,0,0,0,7.9,2H190.8a15.19,15.19,0,0,0,7.9-2c2.2-1.3,3.3-2.9,3.3-4.7v-6.7H67.9Zm72.6,6.7H129.3a1.1,1.1,0,0,1,0-2.2h11.2a1.1,1.1,0,1,1,0,2.2Z"/>
      <path class="cls-2"
            d="M96.9,156.9h76a11.27,11.27,0,0,0,11.2-11.2V96.6a11.27,11.27,0,0,0-11.2-11.2h-76A11.27,11.27,0,0,0,85.7,96.6v49.1a10.73,10.73,0,0,0,3.3,7.9A10.89,10.89,0,0,0,96.9,156.9ZM94.7,96.6a2.13,2.13,0,0,1,.7-1.6,2.36,2.36,0,0,1,1.6-.7h75.9a2.13,2.13,0,0,1,1.6.7,2.36,2.36,0,0,1,.7,1.6v49.1a2.13,2.13,0,0,1-.7,1.6,2.36,2.36,0,0,1-1.6.7h-76a2.13,2.13,0,0,1-1.6-.7,2.36,2.36,0,0,1-.7-1.6V96.6Z"/>
    </g>
  </g>
</svg>
