<?xml version="1.0" encoding="utf-8"?>
<!-- Generator: Adobe Illustrator 22.1.0, SVG Export Plug-In . SVG Version: 6.00 Build 0)  -->
<svg version="1.1" id="Слой_1" xmlns="http://www.w3.org/2000/svg" xmlns:xlink="http://www.w3.org/1999/xlink" x="0px" y="0px"
	 viewBox="0 0 312.8 63.8" style="enable-background:new 0 0 312.8 63.8;" xml:space="preserve">
<style type="text/css">
	.st0{enable-background:new    ;}
	.st1{fill:#FFFFFF;}
</style>
<title>Ресурс 1</title>
<g id="Слой_2_1_">
	<g id="Слой_1-2">
		<g class="st0">
			<path class="st1" d="M35.3,12.4l3.9,3.9V26H32v30.9H21.5L17.6,53h-0.2V26H14l-3.9-3.9H10v-9.9h25.3V12.4z M34,13.6H11.3v7.3h7.5
				v30.9h8V20.8H34V13.6z"/>
			<path class="st1" d="M41.9,12.3H63v0.2l3.9,3.9V26H56.3v0.8h6.2V27l3.9,3.9v9.6h-10v2.7h6.9v0.2l3.9,3.9v9.7H45.9L42,53h-0.2
				V12.3z M43.2,51.7h18.8v-7.2H51.2v-9.2h10v-7.1H51.1v-7.4h10.6v-7.3H43.2V51.7z"/>
			<path class="st1" d="M84.3,43.2h7.3v0.2l3.9,3.9v9.7H73.8L69.9,53h-0.2V12.3h10.6v0.2l3.9,3.9V43.2z M90.3,51.7v-7.2H79.1V13.6
				h-8v38.1H90.3z"/>
			<path class="st1" d="M98.1,12.3h21.1v0.2l3.9,3.9V26h-10.6v0.8h6.2V27l3.9,3.9v9.6h-10v2.7h6.9v0.2l3.9,3.9v9.7h-21.3L98.3,53
				h-0.2V12.3z M99.4,51.7h18.8v-7.2h-10.8v-9.2h10v-7.1h-10.1v-7.4h10.6v-7.3H99.4V51.7z"/>
			<path class="st1" d="M140.5,29.3v9.2h10.6v0.2l3.9,3.9v8.3l-6,6H130l-3.9-3.9H126V18.3l6.5-6h18.6v0.2l3.9,3.9v16.9h-10.5
				L140.5,29.3L140.5,29.3z M135.3,44.5V20.8h6.4V28h8V13.6H133l-5.7,5.2v32.9h17.2l5.3-5.3v-6.6h-8v4.6H135.3z"/>
			<path class="st1" d="M157.6,12.3h25.7v0.2l3.9,3.9v40.6h-25.5l-3.9-3.9h-0.2V12.3z M158.9,51.7h23V13.6h-23V51.7z M167,20.8h7
				v23.7h-7V20.8z"/>
			<path class="st1" d="M207,22.7l2.9-10.4h11.5v0.2l3.9,3.9v40.6h-9.9l-3-3l-0.7,3h-4.3l-3.7-3.7v3.7h-9.9L190,53h-0.2V12.3h11.5
				l0.1,0.2l3.8,3.8L207,22.7z M205.6,32.6l-5.3-19h-9.2v38.1h7.4V28l5.9,23.7h2.4l5.9-23.7v23.7h7.4V13.6h-9.2L205.6,32.6z"/>
			<path class="st1" d="M228.1,53H228V41.8h10.7V42l3.9,3.9v11H232L228.1,53z M237.3,51.7v-8.6h-8.1v8.6H237.3z"/>
			<path class="st1" d="M247.3,43.2V24.6l-2.5-2.5h-0.2v-9.9h15.9v0.2l3.9,3.9V26h-2.6v18.6l2.6,2.6v9.7h-15.7l-3.9-3.9h-0.2v-9.9
				H247.3z M256.6,44.5V20.8h2.6v-7.2H246v7.2h2.6v23.7H246v7.2h13.3v-7.2H256.6z"/>
			<path class="st1" d="M292.4,12.4l3.9,3.9V26h-7.2v30.9h-10.5l-3.9-3.9h-0.2V26h-3.4l-3.9-3.9h-0.2v-9.9h25.3V12.4z M291.1,13.6
				h-22.7v7.3h7.5v30.9h8V20.8h7.2V13.6z"/>
		</g>
	</g>
</g>
</svg>
