<svg width="12" height="13" viewBox="0 0 12 13" fill="none" xmlns="http://www.w3.org/2000/svg">
<g clip-path="url(#clip0_12_9486)">
<path d="M9.84016 6.69764C9.84016 6.45764 9.65663 6.27411 9.41663 6.27411C9.17663 6.27411 8.9931 6.45764 8.9931 6.69764C8.9931 8.3494 7.65192 9.69058 6.00016 9.69058C4.34839 9.69058 3.00722 8.3494 3.00722 6.69764C3.00722 6.45764 2.82369 6.27411 2.58369 6.27411C2.34369 6.27411 2.16016 6.45764 2.16016 6.69764C2.16016 8.65999 3.62839 10.3118 5.57663 10.5235V11.6529H4.0378C3.7978 11.6529 3.61427 11.8365 3.61427 12.0765C3.61427 12.3165 3.7978 12.5 4.0378 12.5H7.96251C8.20251 12.5 8.38604 12.3165 8.38604 12.0765C8.38604 11.8365 8.20251 11.6529 7.96251 11.6529H6.42369V10.5235C8.37192 10.3118 9.84016 8.65999 9.84016 6.69764Z" fill="#9D9D9D"/>
<path d="M6.00023 0.5C4.7014 0.5 3.64258 1.55882 3.64258 2.85765V6.68353C3.64258 7.99647 4.7014 9.04118 6.00023 9.05529C7.29905 9.05529 8.35787 7.99647 8.35787 6.69765V2.85765C8.35787 1.55882 7.29905 0.5 6.00023 0.5Z" fill="#9D9D9D"/>
</g>
<defs>
<clipPath id="clip0_12_9486">
<rect width="12" height="12" fill="white" transform="translate(0 0.5)"/>
</clipPath>
</defs>
</svg>
