<svg width="12" height="13" viewBox="0 0 12 13" fill="none" xmlns="http://www.w3.org/2000/svg">
<g clip-path="url(#clip0_12_9457)">
<path d="M8.31649 1.09251C8.63077 1.09251 8.88528 1.351 8.88528 1.6694V11.3313C8.88511 11.4841 8.82515 11.6306 8.71854 11.7388C8.61192 11.8469 8.46735 11.9078 8.31649 11.9081H1.15428C1.00325 11.908 0.85845 11.8472 0.751596 11.739C0.644742 11.6309 0.584551 11.4843 0.584211 11.3313L0.584211 1.6694C0.584211 1.351 0.840004 1.09251 1.15428 1.09251H8.31649ZM9.47013 11.3313V1.6694C9.47013 1.0248 8.95276 0.5 8.31649 0.5L1.15428 0.5C0.518013 0.5 0 1.0248 0 1.6694L0 11.3313C0 11.9759 0.518013 12.5 1.15428 12.5H8.31714C8.95341 12.5 9.47013 11.9752 9.47013 11.3313Z" fill="#9D9D9D"/>
<path d="M8.12626 2.12257H1.35545C1.30022 2.12257 1.24726 2.1448 1.2082 2.18436C1.16915 2.22392 1.14721 2.27758 1.14721 2.33353V4.44965C1.14721 4.56685 1.2404 4.66061 1.35545 4.66061H8.12626C8.18148 4.66061 8.23445 4.63838 8.2735 4.59882C8.31255 4.55926 8.33449 4.5056 8.33449 4.44965V2.33353C8.33449 2.27758 8.31255 2.22392 8.2735 2.18436C8.23445 2.1448 8.18148 2.12257 8.12626 2.12257Z" fill="#9D9D9D"/>
<path d="M6.52851 6.38019H7.27468C7.50348 6.38019 7.68987 6.15946 7.68987 5.88795C7.68987 5.61644 7.50348 5.39571 7.27468 5.39571H6.52851C6.29971 5.39571 6.11333 5.61644 6.11333 5.88795C6.11333 6.15946 6.29971 6.38019 6.52851 6.38019Z" fill="#9D9D9D"/>
<path d="M6.52851 7.95914H7.27468C7.50348 7.95914 7.68987 7.73776 7.68987 7.46625C7.68987 7.19474 7.50348 6.97336 7.27468 6.97336H6.52851C6.29971 6.97336 6.11333 7.19474 6.11333 7.46625C6.11333 7.73776 6.29971 7.95914 6.52851 7.95914Z" fill="#9D9D9D"/>
<path d="M5.16471 5.39571H4.41918C4.18974 5.39571 4.00336 5.61644 4.00336 5.88795C4.00336 6.15946 4.18974 6.38019 4.41854 6.38019H5.16535C5.39351 6.38019 5.58053 6.15946 5.58053 5.88795C5.58053 5.61644 5.39351 5.39571 5.16471 5.39571Z" fill="#9D9D9D"/>
<path d="M5.16471 6.94601H4.41918C4.18974 6.94601 4.00336 7.16739 4.00336 7.4389C4.00336 7.71041 4.18974 7.93179 4.41854 7.93179H5.16535C5.39351 7.93179 5.58053 7.71041 5.58053 7.4389C5.58053 7.16739 5.39415 6.94666 5.16535 6.94666L5.16471 6.94601Z" fill="#9D9D9D"/>
<path d="M3.05474 5.39571H2.30857C2.07912 5.39571 1.89338 5.61644 1.89338 5.88795C1.89338 6.15946 2.07977 6.38019 2.30857 6.38019H3.05474C3.28354 6.38019 3.46992 6.15946 3.46992 5.88795C3.46992 5.61644 3.28354 5.39571 3.05474 5.39571Z" fill="#9D9D9D"/>
<path d="M3.05474 6.94601H2.30857C2.07912 6.94601 1.89338 7.16739 1.89338 7.4389C1.89338 7.71041 2.07977 7.93179 2.30857 7.93179H3.05474C3.28354 7.93179 3.46992 7.71041 3.46992 7.4389C3.46992 7.16739 3.28354 6.94601 3.05474 6.94601Z" fill="#9D9D9D"/>
<path d="M3.05474 8.49762H2.30857C2.07912 8.49762 1.89338 8.71835 1.89338 8.98986C1.89338 9.26137 2.07977 9.4821 2.30857 9.4821H3.05474C3.28354 9.4821 3.46992 9.26137 3.46992 8.98986C3.46992 8.71835 3.28354 8.49762 3.05474 8.49762Z" fill="#9D9D9D"/>
<path d="M3.05474 10.0479H2.30857C2.07912 10.0479 1.89338 10.2693 1.89338 10.5415C1.89338 10.8123 2.07977 11.033 2.30857 11.033H3.05474C3.28354 11.033 3.46992 10.8123 3.46992 10.5415C3.46992 10.2693 3.28354 10.0479 3.05474 10.0479Z" fill="#9D9D9D"/>
<path d="M5.11329 8.49762H4.36777C4.13897 8.49762 3.95258 8.71835 3.95258 8.98986C3.95258 9.26137 4.13897 9.4821 4.36777 9.4821H5.11329C5.34274 9.4821 5.52912 9.26137 5.52912 8.98986C5.52912 8.71835 5.34209 8.49762 5.11329 8.49762Z" fill="#9D9D9D"/>
<path d="M5.11329 10.0479H4.36777C4.13897 10.0479 3.95258 10.2693 3.95258 10.5415C3.95258 10.8123 4.13897 11.033 4.36777 11.033H5.11329C5.34274 11.033 5.52912 10.8123 5.52912 10.5415C5.52912 10.2693 5.34209 10.0479 5.11329 10.0479Z" fill="#9D9D9D"/>
<path d="M7.27468 8.49762H6.52851C6.29907 8.49762 6.11333 8.71835 6.11333 8.98986C6.11333 9.26137 6.29971 9.4821 6.52851 9.4821H7.27468C7.50348 9.4821 7.68987 9.26137 7.68987 8.98986C7.68987 8.71835 7.50348 8.49762 7.27468 8.49762Z" fill="#9D9D9D"/>
<path d="M7.27468 10.0479H6.52851C6.29907 10.0479 6.11333 10.2693 6.11333 10.5415C6.11333 10.8123 6.29971 11.033 6.52851 11.033H7.27468C7.50348 11.033 7.68987 10.8123 7.68987 10.5415C7.68987 10.2693 7.50348 10.0479 7.27468 10.0479Z" fill="#9D9D9D"/>
<path d="M9.90267 8.23782L9.96951 8.27363C9.99013 8.28499 10.013 8.29164 10.0364 8.2931C10.0598 8.29456 10.0833 8.29081 10.1051 8.2821C10.1272 8.27346 10.1471 8.25999 10.1634 8.24266C10.1797 8.22533 10.1921 8.20455 10.1996 8.18183L10.224 8.1089C10.6006 6.97263 10.5482 5.73526 10.0768 4.63587L10.0498 4.57336C10.0411 4.55292 10.0284 4.5345 10.0124 4.51922C9.99647 4.50394 9.97759 4.49213 9.95695 4.48451C9.93631 4.47689 9.91435 4.47362 9.89241 4.47491C9.87048 4.47619 9.84904 4.482 9.8294 4.49197L9.76963 4.52192C9.65394 4.58052 9.52926 4.61308 9.40008 4.61959L9.23426 4.62805V4.95621L9.41679 4.9471C9.55561 4.94059 9.68994 4.90999 9.81848 4.85855C10.2083 5.82566 10.2551 6.8998 9.95087 7.89794C9.77631 7.8233 9.58739 7.78947 9.39815 7.79897L9.23426 7.80744V8.1356L9.41422 8.12648C9.58453 8.11736 9.75356 8.15643 9.90267 8.23782Z" fill="#9D9D9D"/>
<path d="M10.5441 2.48068C10.5062 2.43423 10.4661 2.38968 10.4239 2.3472C10.1977 2.11866 9.92902 1.95849 9.65523 1.89273C9.52757 1.85775 9.39528 1.84325 9.26319 1.84975L9.23427 1.85171V2.17987L9.2799 2.17726C9.37694 2.1727 9.28054 4.6847 9.38144 4.71204C9.64302 4.7752 9.73814 4.46527 9.94123 4.71204C10.519 6.5 9.92388 7.80678 10.1283 8.09913C10.0267 8.27102 9.58968 7.92658 9.38144 7.91031C9.37502 7.90966 9.53505 10.5681 9.23427 10.5838V10.9126L9.55112 10.8957C9.6006 10.8937 9.65073 10.8878 9.70022 10.8794C10.0518 10.9009 10.5614 10.6821 10.9233 10.141C12.4895 7.80027 12.3334 4.65084 10.5441 2.48068Z" fill="#9D9D9D"/>
</g>
<defs>
<clipPath id="clip0_12_9457">
<rect width="12" height="12" fill="white" transform="translate(0 0.5)"/>
</clipPath>
</defs>
</svg>
