<svg width="12" height="13" viewBox="0 0 12 13" fill="none" xmlns="http://www.w3.org/2000/svg">
<path d="M9.2668 2.5115C9.3088 2.5115 9.3428 2.5455 9.3428 2.587V8.708H8.6338C8.28746 8.70826 7.95538 8.84593 7.71043 9.09078C7.46549 9.33563 7.32769 9.66766 7.3273 10.014V10.6085H2.9908C2.97073 10.6084 2.95152 10.6003 2.93738 10.5861C2.92323 10.5718 2.9153 10.5526 2.9153 10.5325V2.5875C2.9153 2.5455 2.9493 2.5115 2.9903 2.5115H9.2668ZM7.8378 10.014C7.8378 9.5755 8.1948 9.219 8.6338 9.219H9.8538V2.5865C9.8538 2.263 9.5903 2 9.2668 2H2.9908C2.6673 2 2.4043 2.263 2.4043 2.5865V10.5315C2.4043 10.8555 2.6673 11.1185 2.9908 11.1185H7.8378V10.014Z" fill="#686868"/>
<path d="M3.85445 4.58854H8.40345C8.45822 4.58854 8.51074 4.56679 8.54947 4.52806C8.58819 4.48933 8.60995 4.43681 8.60995 4.38204V4.01204C8.60995 3.95727 8.58819 3.90475 8.54947 3.86602C8.51074 3.8273 8.45822 3.80554 8.40345 3.80554H3.85445C3.79968 3.80554 3.74716 3.8273 3.70843 3.86602C3.66971 3.90475 3.64795 3.95727 3.64795 4.01204V4.38204C3.64795 4.49604 3.73995 4.58854 3.85445 4.58854Z" fill="#686868"/>
<path d="M3.85445 5.88298H8.40345C8.45822 5.88298 8.51074 5.86122 8.54947 5.82249C8.58819 5.78377 8.60995 5.73124 8.60995 5.67648V5.30648C8.60995 5.25171 8.58819 5.19918 8.54947 5.16046C8.51074 5.12173 8.45822 5.09998 8.40345 5.09998H3.85445C3.79968 5.09998 3.74716 5.12173 3.70843 5.16046C3.66971 5.19918 3.64795 5.25171 3.64795 5.30648V5.67648C3.64795 5.79048 3.73995 5.88298 3.85445 5.88298Z" fill="#686868"/>
<path d="M8.60995 6.97152V6.60152C8.60995 6.54675 8.58819 6.49423 8.54947 6.4555C8.51074 6.41678 8.45822 6.39502 8.40345 6.39502H3.85445C3.79968 6.39502 3.74716 6.41678 3.70843 6.4555C3.66971 6.49423 3.64795 6.54675 3.64795 6.60152V6.97152C3.64795 7.08552 3.73995 7.17802 3.85445 7.17802H8.40345C8.45822 7.17802 8.51074 7.15626 8.54947 7.11754C8.58819 7.07881 8.60995 7.02629 8.60995 6.97152Z" fill="#686868"/>
<path d="M8.36328 10.864L9.46228 9.69348H8.36328V10.864Z" fill="#686868"/>
</svg>
