<svg width="12" height="13" viewBox="0 0 12 13" fill="none" xmlns="http://www.w3.org/2000/svg">
<g clip-path="url(#clip0_12_9463)">
<path d="M9.97022 1.09291C10.3186 1.09291 10.6018 1.35172 10.6018 1.67001V11.3306C10.6016 11.4836 10.535 11.6303 10.4166 11.7385C10.2982 11.8467 10.1377 11.9076 9.97022 11.9077H2.02909C1.86164 11.9076 1.7011 11.8467 1.58269 11.7385C1.46429 11.6303 1.39769 11.4836 1.39751 11.3306V1.67001C1.39751 1.35172 1.68144 1.09291 2.02909 1.09291H9.97022ZM11.25 11.3313V1.66937C11.2496 1.35934 11.1147 1.0621 10.8748 0.842872C10.6348 0.623644 10.3095 0.500335 9.97022 0.5L2.02909 0.5C1.68978 0.500503 1.36455 0.623973 1.12475 0.843319C0.884958 1.06266 0.750183 1.35997 0.75 1.67001L0.75 11.3306C0.750366 11.6406 0.885222 11.9377 1.125 12.1569C1.36477 12.3761 1.6899 12.4995 2.02909 12.5H9.97022C10.3095 12.4997 10.6348 12.3764 10.8748 12.1571C11.1147 11.9379 11.2496 11.6413 11.25 11.3313Z" fill="#9D9D9D"/>
<path d="M9.52909 7.1195H2.48477V2.54451H9.53047L9.52909 7.1195ZM9.70372 2.13894L2.29415 2.12308C2.26381 2.123 2.23375 2.12839 2.20569 2.13894C2.17763 2.14949 2.15213 2.165 2.13064 2.18457C2.10915 2.20415 2.09211 2.22741 2.08047 2.25301C2.06884 2.27862 2.06285 2.30607 2.06285 2.3338V7.33021C2.06285 7.44664 2.16673 7.54093 2.29346 7.54093L9.70303 7.55678C9.73337 7.55687 9.76344 7.55148 9.79149 7.54093C9.81955 7.53037 9.84506 7.51487 9.86654 7.49529C9.88803 7.47572 9.90508 7.45246 9.91671 7.42685C9.92834 7.40125 9.93433 7.37379 9.93433 7.34607V2.34966C9.93433 2.29377 9.91004 2.24017 9.86679 2.20066C9.82354 2.16114 9.76488 2.13894 9.70372 2.13894Z" fill="#9D9D9D"/>
<path d="M3.34956 8.49768H2.52269C2.26922 8.49768 2.06285 8.71852 2.06285 8.98998C2.06285 9.26208 2.26922 9.48292 2.52269 9.48292H3.35025C3.6044 9.48292 3.81078 9.26144 3.81078 8.98935C3.81078 8.71852 3.60371 8.49768 3.34956 8.49768Z" fill="#9D9D9D"/>
<path d="M3.34956 10.048H2.52269C2.26922 10.048 2.06285 10.2695 2.06285 10.5409C2.06285 10.8124 2.26922 11.0332 2.52269 11.0332H3.35025C3.6044 11.0332 3.81078 10.8124 3.81078 10.5409C3.81078 10.2688 3.60371 10.048 3.34956 10.048Z" fill="#9D9D9D"/>
<path d="M6.42036 8.49768H5.5928C5.33933 8.49768 5.13296 8.71852 5.13296 8.98998C5.13296 9.26208 5.33933 9.48292 5.5928 9.48292H6.42036C6.67452 9.48292 6.88089 9.26144 6.88089 8.98935C6.88089 8.71852 6.67452 8.49768 6.42036 8.49768Z" fill="#9D9D9D"/>
<path d="M6.42036 10.048H5.5928C5.33933 10.048 5.13296 10.2695 5.13296 10.5409C5.13296 10.8124 5.33933 11.0332 5.5928 11.0332H6.42036C6.67452 11.0332 6.88089 10.8124 6.88089 10.5409C6.88089 10.2688 6.67452 10.048 6.42036 10.048Z" fill="#9D9D9D"/>
<path d="M9.47697 8.46446H8.6501C8.39595 8.46446 8.18958 8.68529 8.18958 8.95676C8.18958 9.22885 8.39595 9.44969 8.6501 9.44969H9.47767C9.73113 9.44969 9.9375 9.22822 9.9375 8.95612C9.9375 8.6853 9.73044 8.46446 9.47697 8.46446Z" fill="#9D9D9D"/>
<path d="M9.47697 10.0148H8.6501C8.39595 10.0148 8.18958 10.2362 8.18958 10.5077C8.18958 10.7792 8.39595 11 8.6501 11H9.47767C9.73113 11 9.9375 10.7792 9.9375 10.5077C9.9375 10.2356 9.73044 10.0148 9.47697 10.0148Z" fill="#9D9D9D"/>
<path d="M2.52701 2.43439H9.45222V6.86384H2.52701V2.43439Z" fill="#9D9D9D"/>
<path fill-rule="evenodd" clip-rule="evenodd" d="M2.36539 2.37875H9.63462V7.25375H2.36539V2.37875ZM3.17308 3.12875V6.50375H8.82692V3.12875H3.17308Z" fill="#9D9D9D"/>
</g>
<defs>
<clipPath id="clip0_12_9463">
<rect width="12" height="12" fill="white" transform="translate(0 0.5)"/>
</clipPath>
</defs>
</svg>
