<svg width="12" height="13" viewBox="0 0 12 13" fill="none" xmlns="http://www.w3.org/2000/svg">
<path d="M8.64739 1.99336C8.87907 1.99336 9.06808 2.20927 9.06808 2.47441V10.5261C9.06808 10.7907 8.87951 11.0066 8.64694 11.0066H3.35306C3.24136 11.0066 3.13424 10.956 3.05527 10.8657C2.97629 10.7755 2.93192 10.6532 2.93192 10.5256V2.47441C2.93192 2.20927 3.12049 1.99387 3.35306 1.99387L8.64739 1.99336ZM9.5 10.5256V2.47441C9.5 1.93746 9.11747 1.5 8.64694 1.5H3.35306C2.88253 1.5 2.5 1.93746 2.5 2.47441V10.5261C2.5 11.0631 2.88253 11.5 3.35306 11.5H8.64694C9.11747 11.5 9.5 11.0631 9.5 10.5256Z" fill="#36348E"/>
<path d="M8.35293 9.21679H3.65663V3.20366H8.35293V9.21679ZM8.50693 2.85236H3.50218C3.4615 2.85249 3.42251 2.87101 3.39374 2.90388C3.36497 2.93674 3.34875 2.98127 3.34863 3.02775V9.39218C3.34863 9.48962 3.41778 9.5686 3.50218 9.5686H8.50693C8.59223 9.5686 8.66093 9.48962 8.66093 9.39269V3.02826C8.66099 3.00514 8.65704 2.98224 8.64933 2.96087C8.64161 2.93949 8.63027 2.92008 8.61595 2.90373C8.60164 2.88738 8.58464 2.87443 8.56593 2.86561C8.54722 2.85679 8.52717 2.85229 8.50693 2.85236Z" fill="#36348E"/>
<path d="M6.28036 9.89532H5.72901C5.55975 9.89532 5.42236 10.08 5.42236 10.3056C5.42236 10.5323 5.55975 10.7159 5.72901 10.7159H6.28126C6.45007 10.7159 6.58791 10.5323 6.58791 10.3056C6.58791 10.08 6.45007 9.89532 6.28081 9.89532H6.28036Z" fill="#36348E"/>
<path d="M3.83447 9.08089V3.43958H8.32424V9.08089H3.83447Z" fill="#36348E"/>
<path d="M3.83447 9.08089V3.43958H8.32424V9.08089H3.83447Z" stroke="#36348E" stroke-miterlimit="20"/>
</svg>
