<svg width="12" height="13" viewBox="0 0 12 13" fill="none" xmlns="http://www.w3.org/2000/svg">
<g clip-path="url(#clip0_12_9477)">
<path d="M1.44621 4.01557H10.161V11.139H1.44621V4.01557ZM10.6078 11.1644V3.98958C10.6077 3.93014 10.5967 3.8713 10.5754 3.81642C10.554 3.76154 10.5228 3.7117 10.4835 3.66975C10.4441 3.6278 10.3975 3.59457 10.3461 3.57194C10.2948 3.54932 10.2398 3.53775 10.1842 3.5379H1.42247C1.31052 3.5379 1.20314 3.58547 1.12393 3.67016C1.04472 3.75485 1.00014 3.86974 1 3.98958V11.1644C1 11.4134 1.18992 11.6161 1.42247 11.6161H10.1848C10.2967 11.6161 10.4041 11.5685 10.4833 11.4839C10.5625 11.3992 10.6071 11.2843 10.6073 11.1644H10.6078Z" fill="#95989A"/>
<path d="M8.93292 9.4617H2.67412V5.08355H8.93292V9.4617ZM9.13201 4.65787H2.47502C2.42217 4.65786 2.37148 4.6803 2.33405 4.72025C2.29663 4.76021 2.27553 4.81442 2.27539 4.871V9.67483C2.27539 9.79266 2.36496 9.88854 2.47502 9.88854H9.13201C9.18487 9.88839 9.2355 9.86581 9.27283 9.82574C9.31015 9.78568 9.33111 9.73141 9.33111 9.67483V4.871C9.33111 4.81432 9.31007 4.75996 9.27264 4.71988C9.2352 4.6798 9.18442 4.65729 9.13147 4.65729L9.13201 4.65787Z" fill="#95989A"/>
<path d="M5.80343 10.0549C5.69353 10.0608 5.58995 10.1117 5.51412 10.1971C5.43829 10.2824 5.396 10.3957 5.396 10.5135C5.396 10.6313 5.43829 10.7446 5.51412 10.83C5.58995 10.9153 5.69353 10.9662 5.80343 10.9721C5.91333 10.9662 6.01691 10.9153 6.09274 10.83C6.16858 10.7446 6.21087 10.6313 6.21087 10.5135C6.21087 10.3957 6.16858 10.2824 6.09274 10.1971C6.01691 10.1117 5.91333 10.0608 5.80343 10.0549Z" fill="#95989A"/>
<path d="M8.10391 1C8.04995 1.05776 5.71208 3.61707 5.71208 3.61707L3.0332 1.38468" stroke="#95989A" stroke-width="0.7" stroke-miterlimit="20"/>
<path d="M2.64893 9.89145V4.69312H9.12354V9.89145H2.64893Z" fill="#95989A"/>
</g>
<defs>
<clipPath id="clip0_12_9477">
<rect width="12" height="12" fill="white" transform="translate(0 0.5)"/>
</clipPath>
</defs>
</svg>
