<svg width="12" height="13" viewBox="0 0 12 13" fill="none" xmlns="http://www.w3.org/2000/svg">
<path d="M10.6591 2.95926C10.818 2.95926 10.9473 3.08136 10.9473 3.2321V9.33359C10.9473 9.48433 10.818 9.60643 10.6591 9.60643H1.77251C1.69616 9.60643 1.62293 9.5777 1.56889 9.52655C1.51485 9.47539 1.48442 9.406 1.48428 9.33359V3.2321C1.48428 3.08136 1.61356 2.95926 1.77251 2.95926H10.6591ZM11.4321 9.33359V3.2321C11.4321 2.82811 11.0856 2.5 10.6591 2.5H1.77251C1.34652 2.5 1 2.82811 1 3.2321V9.33359C1.00028 9.5278 1.08176 9.71399 1.22657 9.85132C1.37139 9.98865 1.56772 10.0659 1.77251 10.0662H10.6591C10.864 10.0661 11.0604 9.98884 11.2054 9.8515C11.3503 9.71415 11.4318 9.52789 11.4321 9.33359Z" fill="#95989A"/>
<path d="M6.20676 7.43025L1.06885 4.29634L1.41855 3.78131L6.22689 6.71423L11.031 4.11395L11.3505 4.64606L6.20676 7.43025Z" fill="#95989A"/>
</svg>
