<svg width="12" height="13" viewBox="0 0 12 13" fill="none" xmlns="http://www.w3.org/2000/svg">
<path d="M4.71882 6.29732C4.70546 6.08635 4.7355 5.87489 4.8071 5.67599C4.87869 5.47709 4.99031 5.29498 5.13505 5.14092C5.27516 5.00032 5.44268 4.89003 5.6272 4.81688C5.81172 4.74374 6.00931 4.7093 6.20769 4.71571C6.59102 4.70716 6.96153 4.85246 7.2376 5.1187C7.38694 5.2754 7.50324 5.46053 7.57959 5.66308C7.65594 5.86563 7.69078 6.08146 7.68204 6.29775L4.71882 6.29732ZM7.0876 8.8379C6.85812 8.99602 6.58333 9.07636 6.3047 9.06653C6.09465 9.07244 5.88553 9.03636 5.6896 8.96041C5.49367 8.88446 5.31488 8.77017 5.16368 8.62423C5.00495 8.4611 4.88068 8.26767 4.7983 8.05549C4.71593 7.8433 4.67712 7.6167 4.6842 7.38919H9.65083C9.67476 6.25373 9.46664 5.361 9.02605 4.71144C9.14038 4.43183 9.20864 4.13554 9.22818 3.83409C9.24766 3.66283 9.22932 3.48937 9.17446 3.32597C9.1196 3.16256 9.02955 3.01319 8.91066 2.88837C8.76678 2.77681 8.60049 2.69766 8.42317 2.65635C8.24585 2.61505 8.06169 2.61256 7.88332 2.64906C7.56709 2.69607 7.25811 2.78581 6.96538 2.9153C6.66496 3.04008 6.37308 3.18453 6.09188 3.34905H6.08932C5.63622 3.33445 5.1848 3.41097 4.76182 3.57408C4.33884 3.7372 3.95292 3.98358 3.62694 4.29862C3.30896 4.62859 3.05983 5.01856 2.89409 5.44579C2.72835 5.87302 2.6493 6.32897 2.66157 6.78706C2.36603 7.30307 2.1265 7.84919 1.94704 8.41611C1.83928 8.76487 1.79711 9.1306 1.82268 9.49473C1.83818 9.70469 1.91496 9.90549 2.04349 10.0722C2.17202 10.239 2.34666 10.3643 2.54576 10.4328C2.8902 10.5238 3.25259 10.5225 3.5966 10.4285C3.91648 10.3528 4.22559 10.2372 4.51668 10.0845C5.01326 10.2952 5.60343 10.4007 6.28633 10.4007C7.00626 10.427 7.71901 10.2497 8.34272 9.88918C8.89784 9.5391 9.32086 9.01445 9.54528 8.39773L7.57093 8.09859C7.49408 8.39073 7.32465 8.65012 7.08803 8.8379H7.0876ZM8.72691 4.34349C8.3257 3.94113 7.82301 3.65493 7.27222 3.51529C7.7376 3.267 8.29785 3.0153 8.64998 3.21658C8.84656 3.37085 8.97049 3.59991 8.99272 3.84905C9.03801 4.13324 9.0487 4.42212 9.02477 4.7093C8.93636 4.57889 8.83669 4.45649 8.72691 4.34349ZM2.7184 10.0144C2.26969 9.79473 2.41456 9.19004 2.62481 8.6456C2.68763 8.49902 2.76669 8.355 2.83806 8.21098C2.95686 8.58919 3.1449 8.94175 3.39319 9.25072C3.69288 9.61672 4.07838 9.90298 4.5154 10.084C3.92204 10.2318 3.29887 10.2075 2.71883 10.014L2.7184 10.0144Z" fill="#7DD7E5"/>
</svg>
