<svg width="12" height="13" viewBox="0 0 12 13" fill="none" xmlns="http://www.w3.org/2000/svg">
<path d="M7.94705 5.59041C7.23361 5.59041 6.65185 5.00864 6.65185 4.2952C6.65185 3.58176 7.23361 3 7.94705 3C8.66049 3 9.24225 3.58176 9.24225 4.2952C9.24225 5.00859 8.66049 5.59041 7.94705 5.59041ZM5.96028 4.66831C5.96028 3.74629 5.21391 3.01086 4.30283 3.01086C3.38081 3.01086 2.64538 3.75723 2.64538 4.66831C2.64538 5.59033 3.39175 6.32576 4.30283 6.32576C5.22485 6.32584 5.96028 5.57939 5.96028 4.66831ZM9.85698 8.8065C10.0216 8.8065 10.1534 8.66378 10.1314 8.49915C9.95576 7.22584 9.40692 5.96355 7.94705 5.96355C7.1238 5.96355 6.58593 6.36967 6.24565 6.95141C6.48714 7.15998 6.70667 7.40147 6.8823 7.69778C7.07984 8.01606 7.25548 8.38933 7.38726 8.81742H9.857L9.85698 8.8065ZM1.50377 9.99197C1.47085 10.2335 1.65744 10.4639 1.90989 10.4639H6.6957C6.94814 10.4639 7.13472 10.2444 7.10181 9.99197C6.86033 8.38935 6.15782 6.80875 4.30277 6.80875C2.44772 6.80875 1.74522 8.38933 1.50373 9.99197H1.50377Z" fill="#9D9D9D"/>
</svg>
