<svg xmlns="http://www.w3.org/2000/svg" viewBox="50 50 165 150">
  <defs>
    <style>.cls-1{fill:#fff;}.cls-2{fill:#575756;}.cls-3{fill:#575756;}</style>
  </defs>
  <title>Ресурс 6</title>
  <g id="Слой_2">
    <g id="Layer_1">
<!--      <circle class="cls-1" cx="134.1" cy="133.6" r="89.4" transform="translate(-0.71 266.48) rotate(-89.48)"/>-->
      <rect class="cls-3" x="127.6" y="155.7" width="11" height="21.9"/>
      <path class="cls-3"
            d="M166,80.7,133.1,67.5,100.2,80.7v20.2H78.3v76.7h38.4V144.7h32.9v32.9h38.3V100.9H166Zm-60.3,75h-11v-11h11Zm0-21.9h-11v-11h11Zm21.9,0h-11v-11h11Zm0-43.9h11v21.9h-11Zm21.9,43.9h-11v-11h11Zm22,21.9h-11v-11h11Zm0-32.9v11h-11v-11Z"/>
    </g>
  </g>
</svg>
