<svg xmlns="http://www.w3.org/2000/svg" width="24" height="24" viewBox="0 0 24 24"><g><g><g><path fill="#fff" d="M0 12C0 5.373 5.373 0 12 0s12 5.373 12 12-5.373 12-12 12S0 18.627 0 12z"/></g><g><g><g><path fill="#36348e" d="M6.522 14.217a1.178 1.178 0 0 1-.347-.838c0-.317.123-.613.347-.838l1.871-1.872 5.189 5.19-1.872 1.871a1.187 1.187 0 0 1-1.675 0zm5.963 4.288l2.648-2.646-6.74-6.74-2.646 2.647a2.267 2.267 0 0 0-.669 1.613c0 .61.238 1.182.669 1.613l3.513 3.513a2.274 2.274 0 0 0 1.613.667c.584 0 1.168-.222 1.612-.667z"/></g></g><g><g><path fill="#36348e" d="M12.706 6.357a1.185 1.185 0 0 1 1.675 0l3.514 3.513c.223.223.346.521.346.838 0 .316-.123.613-.346.837l-1.872 1.872-5.189-5.189zm5.964 5.964c.431-.431.668-1.004.668-1.614 0-.609-.237-1.181-.668-1.612l-3.513-3.513a2.283 2.283 0 0 0-3.226 0L9.284 8.228l6.739 6.74z"/></g></g><g><g><path fill="#36348e" d="M16.914 8.113l-.776-.775 3.206-3.206.775.776z"/></g></g><g><g><path fill="#36348e" d="M4.908 20.12l-.776-.776 3.37-3.37.776.775z"/></g></g></g></g></g></svg>