<svg xmlns="http://www.w3.org/2000/svg" width="24" height="24" viewBox="0 0 24 24"><g><g><g><path fill="#fff" d="M0 12C0 5.373 5.373 0 12 0s12 5.373 12 12-5.373 12-12 12S0 18.627 0 12z"/></g><g><g><g><g><path fill="#36348e" d="M6.382 17.698h1.006v1.672h8.663v-1.672h1.006v2.68H6.382zm11.588 2.705v-2.73a.89.89 0 0 0-.888-.889h-1.056a.89.89 0 0 0-.889.889v.783H8.302v-.783a.89.89 0 0 0-.889-.889H6.357a.89.89 0 0 0-.888.889v2.73c0 .49.398.889.888.889h10.725a.89.89 0 0 0 .888-.89z"/></g></g></g><g><g><g><path fill="#36348e" d="M11.72 16.058a1.822 1.822 0 0 1-1.82-1.82c0-1.004.816-1.82 1.82-1.82s1.82.816 1.82 1.82c0 1.003-.816 1.82-1.82 1.82zm-2.568-1.82a2.57 2.57 0 0 0 2.568 2.567 2.57 2.57 0 0 0 2.567-2.567 2.57 2.57 0 0 0-2.567-2.568 2.57 2.57 0 0 0-2.568 2.568z"/></g></g><g><g><path fill="#36348e" d="M19.134 5.74a.383.383 0 0 1-.528-.007 9.525 9.525 0 0 0-6.886-2.914 9.527 9.527 0 0 0-6.887 2.913.374.374 0 1 1-.536-.52 10.27 10.27 0 0 1 7.423-3.14c2.819 0 5.455 1.115 7.422 3.14a.375.375 0 0 1-.008.528zm.544-1.05a11.01 11.01 0 0 0-7.958-3.366A11.01 11.01 0 0 0 3.762 4.69 1.122 1.122 0 0 0 5.37 6.253a8.785 8.785 0 0 1 6.35-2.687c2.412 0 4.667.954 6.35 2.687.213.22.498.34.804.34a1.123 1.123 0 0 0 .804-1.903z"/></g></g><g><g><path fill="#36348e" d="M6.926 10.152a.37.37 0 0 1-.116-.261.37.37 0 0 1 .103-.267 6.59 6.59 0 0 1 4.807-2.058c1.832 0 3.539.73 4.806 2.058a.37.37 0 0 1 .103.267.37.37 0 0 1-.115.261.383.383 0 0 1-.528-.012 5.849 5.849 0 0 0-4.266-1.826c-1.626 0-3.14.648-4.266 1.827a.375.375 0 0 1-.528.011zm9.33.851c.29 0 .565-.11.775-.31.216-.207.339-.486.346-.785.007-.3-.104-.584-.31-.8a7.333 7.333 0 0 0-5.347-2.29 7.332 7.332 0 0 0-5.347 2.29 1.115 1.115 0 0 0-.31.8c.007.299.13.578.346.785.21.2.485.31.774.31h.026c.3-.007.578-.13.785-.347a5.11 5.11 0 0 1 3.726-1.595c1.42 0 2.742.567 3.725 1.595.21.22.506.347.81.347z"/></g></g></g></g></g></g></svg>