<svg xmlns="http://www.w3.org/2000/svg" width="16" height="16" viewBox="0 0 16 16"><g><g><g><g><path fill="#36348e" d="M2.522 10.217a1.178 1.178 0 0 1-.347-.838c0-.317.123-.613.347-.838L4.393 6.67l5.189 5.19L7.71 13.73a1.187 1.187 0 0 1-1.675 0zm5.963 4.288l2.648-2.646-6.74-6.74-2.646 2.647a2.267 2.267 0 0 0-.669 1.613c0 .61.238 1.182.669 1.613l3.513 3.513a2.274 2.274 0 0 0 1.613.667c.584 0 1.168-.222 1.612-.667z"/></g></g><g><g><path fill="#36348e" d="M8.706 2.357a1.185 1.185 0 0 1 1.675 0l3.514 3.513c.223.223.346.521.346.837 0 .317-.123.614-.346.838l-1.872 1.872-5.189-5.189zM14.67 8.32c.431-.431.668-1.004.668-1.614 0-.609-.237-1.181-.668-1.612l-3.513-3.513a2.283 2.283 0 0 0-3.226 0L5.284 4.228l6.739 6.74z"/></g></g><g><g><path fill="#36348e" d="M12.914 4.113l-.776-.775L15.344.132l.775.776z"/></g></g><g><g><path fill="#36348e" d="M.908 16.12l-.776-.776 3.37-3.37.776.775z"/></g></g></g></g></svg>