<svg xmlns="http://www.w3.org/2000/svg" width="24" height="24" viewBox="0 0 24 24"><g><g><g><path fill="#fff" d="M12 0c6.627 0 12 5.373 12 12s-5.373 12-12 12S0 18.627 0 12 5.373 0 12 0z"/></g><g><g><g><path fill="#35a5f9" d="M17.55 5.797c.49 0 .89.359.89.8v6.743c0 .442-.4.8-.89.8H6.652c-.492 0-.892-.359-.892-.8V6.597c0-.441.4-.8.892-.8zm1.74 7.543V6.597c0-.862-.781-1.562-1.74-1.562H6.652c-.96 0-1.74.7-1.74 1.562v6.743c0 .862.78 1.562 1.74 1.562h10.896c.96 0 1.74-.7 1.74-1.562z"/></g></g><g><g><path fill="#35a5f9" d="M3.291 18.029v-1.311h17.81v1.31z"/></g></g></g></g></g></svg>