<svg xmlns="http://www.w3.org/2000/svg" width="54" height="41" viewBox="0 0 54 41"><g><g><g><g><path fill="#ff5700" d="M20.473 14.928a5.39 5.39 0 1 1 10.78 0 5.39 5.39 0 0 1-10.78 0z"/></g><g><path fill="#ff5700" d="M32.922 21.32c-1.533 2.923-3.912 6.35-7.103 10.722-6.03-8.266-9.163-13.153-9.163-17.642 0-5.053 4.11-9.164 9.163-9.164 3.574 0 6.675 2.057 8.185 5.05h5.614C37.843 4.344 32.33 0 25.819 0c-7.94 0-14.4 6.46-14.4 14.4 0 6.63 4.215 12.66 12.292 23.621l2.108 2.86 2.108-2.86c5.274-7.157 8.9-12.21 10.782-16.702z"/></g></g><g><g><text dominant-baseline="text-before-edge" style="line-height:20px;font-kerning:normal" fill="#fff" font-family="'HeavitasRUSbyDaymarius','HeavitasRUSbyDaymarius'" font-size="16" letter-spacing=".75" transform="translate(0 12)"><tspan font-family="Heavitas [RUS by Daymarius]" font-style="none" font-weight="400">СМТИ</tspan></text></g></g></g></g></svg>