<svg xmlns="http://www.w3.org/2000/svg" width="24" height="24" viewBox="0 0 24 24"><g><g><g><path fill="#fff" d="M0 12C0 5.373 5.373 0 12 0s12 5.373 12 12-5.373 12-12 12S0 18.627 0 12z"/></g><g><g><g><path fill="#36348e" d="M14.153 12.144c0 4.992-1.17 8.057-2.009 8.057s-2.01-3.065-2.01-8.057c0-4.992 1.171-8.057 2.01-8.057.84 0 2.01 3.065 2.01 8.057zm.68 0c0-4.235-.942-8.737-2.689-8.737-1.746 0-2.689 4.502-2.689 8.737 0 4.236.943 8.737 2.69 8.737 1.746 0 2.688-4.501 2.688-8.737z"/></g></g><g><g><path fill="#36348e" d="M17.476 12.144c0 4.443-2.392 8.057-5.332 8.057s-5.331-3.614-5.331-8.057c0-4.443 2.391-8.057 5.331-8.057 2.94 0 5.332 3.614 5.332 8.057zm.68 0c0-4.817-2.698-8.737-6.012-8.737-3.314 0-6.011 3.92-6.011 8.737 0 4.818 2.697 8.737 6.011 8.737s6.011-3.92 6.011-8.737z"/></g></g><g><g><path fill="#36348e" d="M20.031 12.144c0 4.35-3.538 7.888-7.887 7.888s-7.887-3.539-7.887-7.888 3.538-7.887 7.887-7.887c4.35 0 7.887 3.538 7.887 7.887zm1.02 0c0-4.91-3.996-8.907-8.907-8.907s-8.907 3.997-8.907 8.907c0 4.911 3.996 8.907 8.907 8.907 4.91 0 8.907-3.996 8.907-8.907z"/></g></g><g><g><path fill="#36348e" d="M11.804 20.54V3.748h.68V20.54z"/></g></g><g><g><path fill="#36348e" d="M5.396 7.486v-.68h13.32v.68z"/></g></g><g><g><path fill="#36348e" d="M5.396 17.737v-.68h13.32v.68z"/></g></g><g><g><path fill="#36348e" d="M3.747 12.484v-.68H20.54v.68z"/></g></g></g></g></g></svg>