<svg xmlns="http://www.w3.org/2000/svg" width="16" height="19" viewBox="0 0 16 19"><g><g><g><g><path fill="#686868" d="M14.533 1.81c.084 0 .152.068.152.151v12.242h-1.418a2.615 2.615 0 0 0-2.613 2.612v1.189H1.981a.152.152 0 0 1-.151-.152V1.962c0-.084.068-.152.15-.152zm-2.858 15.005c0-.877.714-1.59 1.592-1.59h2.44V1.96c0-.647-.527-1.173-1.174-1.173H1.981c-.647 0-1.173.526-1.173 1.173v15.89c0 .648.526 1.174 1.173 1.174h9.694z"/></g></g><g><g><path fill="#686868" d="M3.708 5.964h9.098a.413.413 0 0 0 .413-.413v-.74a.413.413 0 0 0-.413-.413H3.708a.413.413 0 0 0-.413.413v.74c0 .228.184.413.413.413z"/></g></g><g><g><path fill="#686868" d="M3.708 8.553h9.098a.413.413 0 0 0 .413-.413V7.4a.413.413 0 0 0-.413-.413H3.708a.413.413 0 0 0-.413.413v.74c0 .228.184.413.413.413z"/></g></g><g><g><path fill="#686868" d="M13.219 10.73v-.74a.413.413 0 0 0-.413-.413H3.708a.413.413 0 0 0-.413.413v.74c0 .228.184.413.413.413h9.098a.413.413 0 0 0 .413-.413z"/></g></g></g><g><g><path fill="#686868" d="M12.726 18.515l2.198-2.341h-2.198z"/></g></g></g></svg>