<svg xmlns="http://www.w3.org/2000/svg" width="15" height="17" viewBox="0 0 15 17"><g><g><path fill="#95989a" d="M4.108 1.692c.555.058.989.51 1.014 1.082l.102 2.37a1.116 1.116 0 0 1-1.048 1.161l-.538.036.12.527a13.38 13.38 0 0 0 1.6 3.955l.047.064a7.75 7.75 0 0 0 3.573 2.321l.438.134.137-.438a1.12 1.12 0 0 1 1.34-.756l2.297.594c.596.155.957.748.822 1.349l-.253 1.122a1.127 1.127 0 0 1-.516.7c-.26.157-.567.203-.86.13l-1.245-.311a5.072 5.072 0 0 1-.618-.156l-.425-.107a1.109 1.109 0 0 1-.404-.199l-.053-.04-.06-.024A13.017 13.017 0 0 1 4.39 11.49a12.055 12.055 0 0 1-2.435-5.687l-.01-.07-.03-.063a1.113 1.113 0 0 1-.11-.435l-.004-.097c-.004-.11-.01-.229-.012-.34l-.002-.032a4.904 4.904 0 0 1-.022-.609v-.031c-.015-.378-.027-.758-.04-1.113l-.005-.166a1.133 1.133 0 0 1 1.123-1.149l1.127-.012c.046 0 .093.002.138.007zm9.609 15.01a2.05 2.05 0 0 0 .937-1.272l.256-1.138a2.05 2.05 0 0 0-1.487-2.441l-2.303-.596a2.05 2.05 0 0 0-2.255.943 6.83 6.83 0 0 1-2.74-1.886c-.6-.997-1.055-2.07-1.356-3.193a2.032 2.032 0 0 0 1.374-2.013l-.102-2.372A2.047 2.047 0 0 0 3.958.764L2.833.778a2.046 2.046 0 0 0-1.448.619 2.044 2.044 0 0 0-.586 1.458l.006.19c.012.351.025.727.04 1.102-.006.23.002.463.024.693l.012.334.004.099c.011.253.068.498.169.728a12.99 12.99 0 0 0 2.621 6.069 13.954 13.954 0 0 0 5.509 3.972c.204.148.433.255.683.32l.401.1c.23.073.467.133.676.17l1.216.305a2.042 2.042 0 0 0 1.557-.234z"/></g><g><path fill="#95989a" d="M5.378 3.794V2.01l-1.51-.787-1.816.212-.604 1.18-.122 1.693.334 2.268.755 2.39 1.21 2.42 1.753 1.905 2.179 1.572 3.629 1.422h2.116l.818-.756.272-1.33v-.908l-1.09-.817-1.481-.454-1.422-.211h-.665l-.453.816-.363.303-1.905-1.12-1.3-1.149-.818-1.451-.604-1.482-.152-.998.756-.363.483-.545.334-.816z"/></g></g></svg>