<svg xmlns="http://www.w3.org/2000/svg" width="17" height="18" viewBox="0 0 17 18"><g><g><g><g><path fill="#35a5f9" d="M11.404 12.353H6.43v4.658H1.568V6.455h3.624v-2.76l3.725-2.07 3.725 2.07v2.76h3.624v10.556h-4.862zm5.694-6.73h-3.624V3.206L8.917.674 4.36 3.206v2.417H.736v12.22h6.526v-4.658h3.31v4.658h6.526z"/></g></g><g><g><path fill="#35a5f9" d="M7.232 17.427v-4.659h3.369v4.66z"/></g></g><g><g><path fill="#35a5f9" d="M14.48 10.698h-1.553V9.145h1.553zm0 3.624h-1.553v-1.553h1.553zm-3.106-3.624H9.821V9.145h1.553zM7.621 6.556V3.968h2.589v2.588zm.648 4.142H6.715V9.145h1.554zm-3.106 0H3.609V9.145h1.554zm0 3.624H3.609v-1.553h1.554z"/></g></g></g></g></svg>