<svg xmlns="http://www.w3.org/2000/svg" width="16" height="17" viewBox="0 0 16 17"><g><g><g><g><g><g><path fill="#35a5f9" d="M2.802 2.106l9.954 9.954H2.815zm10.01 10.854a.877.877 0 0 0 .62-1.497L3.412 1.443a.873.873 0 0 0-.955-.19.873.873 0 0 0-.542.81v10.02c0 .484.393.877.877.877h10.02z"/></g></g></g><g><g><path fill="#35a5f9" d="M13.928 2.968a1.026 1.026 0 0 1 0-2.05 1.026 1.026 0 0 1 0 2.05zm0-2.733c-.518 0-.981.233-1.295.598H7.286a.925.925 0 0 0 0 1.848h5.104c.156.322.408.59.72.761v5.064a.926.926 0 0 0 1.85 0V3.302c.41-.312.676-.804.676-1.358A1.71 1.71 0 0 0 13.928.235z"/></g></g><g><g><path fill="#35a5f9" d="M.358 16.119c.066.16.223.263.395.263h9.668a.427.427 0 0 0 .302-.728L7.58 12.51H6.372l3.018 3.018H1.784l3.018-3.018H3.594L.451 15.654a.427.427 0 0 0-.093.465z"/></g></g></g></g></g></svg>