<svg xmlns="http://www.w3.org/2000/svg" width="19" height="19" viewBox="0 0 19 19"><g><g><g><g><g><path fill="#95989a" d="M12.824.82c.489 0 .885.397.885.886v14.839a.887.887 0 0 1-.885.886H1.68a.888.888 0 0 1-.887-.886V1.706c0-.489.398-.886.887-.886zm1.795 15.725V1.706c0-.99-.805-1.796-1.795-1.796H1.68c-.99 0-1.796.806-1.796 1.796v14.839c0 .99.806 1.795 1.796 1.795h11.145c.99 0 1.795-.806 1.795-1.795z"/></g></g><g><g><path fill="#95989a" d="M12.528 2.402H1.993a.324.324 0 0 0-.324.324v3.25c0 .18.145.324.324.324h10.535a.324.324 0 0 0 .324-.324v-3.25a.324.324 0 0 0-.324-.324z"/></g></g><g><g><path fill="#95989a" d="M10.042 8.941h1.161c.356 0 .646-.339.646-.756s-.29-.756-.646-.756h-1.161c-.356 0-.646.339-.646.756s.29.756.646.756z"/></g></g><g><g><path fill="#95989a" d="M10.042 11.366h1.161c.356 0 .646-.34.646-.757s-.29-.757-.646-.757h-1.161c-.356 0-.646.34-.646.757s.29.757.646.757z"/></g></g><g><g><path fill="#95989a" d="M7.92 7.429H6.76c-.357 0-.647.339-.647.756s.29.756.646.756h1.162c.355 0 .646-.339.646-.756s-.29-.756-.646-.756z"/></g></g><g><g><path fill="#95989a" d="M7.92 9.81H6.76c-.357 0-.647.34-.647.757s.29.757.646.757h1.162c.355 0 .646-.34.646-.757s-.29-.756-.646-.756z"/></g></g><g><g><path fill="#95989a" d="M4.637 7.429H3.476c-.357 0-.646.339-.646.756s.29.756.646.756h1.161c.356 0 .646-.339.646-.756s-.29-.756-.646-.756z"/></g></g><g><g><path fill="#95989a" d="M4.637 9.81H3.476c-.357 0-.646.34-.646.757s.29.757.646.757h1.161c.356 0 .646-.34.646-.757s-.29-.756-.646-.756z"/></g></g><g><g><path fill="#95989a" d="M4.637 12.193H3.476c-.357 0-.646.339-.646.756s.29.756.646.756h1.161c.356 0 .646-.339.646-.756s-.29-.756-.646-.756z"/></g></g><g><g><path fill="#95989a" d="M4.637 14.574H3.476c-.357 0-.646.34-.646.758 0 .416.29.755.646.755h1.161c.356 0 .646-.339.646-.755 0-.418-.29-.758-.646-.758z"/></g></g><g><g><path fill="#95989a" d="M7.84 12.193H6.68c-.356 0-.646.339-.646.756s.29.756.646.756h1.16c.357 0 .647-.339.647-.756s-.29-.756-.646-.756z"/></g></g><g><g><path fill="#95989a" d="M7.84 14.574H6.68c-.356 0-.646.34-.646.758 0 .416.29.755.646.755h1.16c.357 0 .647-.339.647-.755 0-.418-.29-.758-.646-.758z"/></g></g><g><g><path fill="#95989a" d="M11.203 12.193h-1.161c-.357 0-.646.339-.646.756s.29.756.646.756h1.161c.356 0 .646-.339.646-.756s-.29-.756-.646-.756z"/></g></g><g><g><path fill="#95989a" d="M11.203 14.574h-1.161c-.357 0-.646.34-.646.758 0 .416.29.755.646.755h1.161c.356 0 .646-.339.646-.755 0-.418-.29-.758-.646-.758z"/></g></g></g><g><g><g><path fill="#95989a" d="M15.292 11.794l.104.055a.25.25 0 0 0 .211.013.25.25 0 0 0 .147-.154l.038-.112a7.442 7.442 0 0 0-.229-5.334l-.042-.096a.251.251 0 0 0-.343-.125l-.093.046c-.18.09-.374.14-.575.15l-.258.013v.504l.284-.014c.216-.01.425-.057.625-.136a6.935 6.935 0 0 1 .206 4.668 1.962 1.962 0 0 0-.86-.152l-.255.013v.504l.28-.014c.265-.014.528.045.76.17z"/></g></g><g><g><path fill="#95989a" d="M16.29 2.952a2.837 2.837 0 0 0-.187-.205c-.352-.351-.77-.597-1.196-.698a1.97 1.97 0 0 0-.61-.066l-.045.003v.504l.071-.004c.151-.007.001 3.851.158 3.893.407.097.555-.379.871 0 .899 2.746-.027 4.753.291 5.202-.158.264-.838-.265-1.162-.29-.01-.001.239 4.082-.229 4.106v.505l.493-.026c.077-.003.155-.012.232-.025.547.033 1.34-.303 1.903-1.134 2.437-3.595 2.194-8.432-.59-11.765z"/></g></g></g></g></g></svg>