<svg xmlns="http://www.w3.org/2000/svg" width="19" height="19" viewBox="0 0 19 19"><g><g><g><path fill="#7dd7e5" d="M6.703 8.979a3.618 3.618 0 0 1 .974-2.706 3.389 3.389 0 0 1 2.51-.995c.897-.02 1.764.32 2.41.943a3.778 3.778 0 0 1 1.04 2.759zm5.543 5.945c-.537.37-1.18.558-1.832.535a3.695 3.695 0 0 1-2.67-1.035 3.967 3.967 0 0 1-1.122-2.89h11.622c.056-2.657-.431-4.746-1.462-6.266a6.543 6.543 0 0 0 .473-2.053 2.757 2.757 0 0 0-.743-2.213 2.956 2.956 0 0 0-2.404-.56c-.74.11-1.463.32-2.148.623-.703.292-1.386.63-2.044 1.015H9.91a7.924 7.924 0 0 0-5.762 2.222 8.08 8.08 0 0 0-2.259 5.823 19.528 19.528 0 0 0-1.672 3.812 6.91 6.91 0 0 0-.291 2.524 2.517 2.517 0 0 0 1.692 2.195c.806.213 1.654.21 2.459-.01a9.192 9.192 0 0 0 2.153-.805c1.162.493 2.543.74 4.141.74a8.962 8.962 0 0 0 4.812-1.197 6.926 6.926 0 0 0 2.814-3.49l-4.62-.7a3.271 3.271 0 0 1-1.13 1.73zm3.836-10.517a7.362 7.362 0 0 0-3.404-1.938c1.089-.581 2.4-1.17 3.224-.699.46.361.75.897.802 1.48.106.665.131 1.341.075 2.013a6.308 6.308 0 0 0-.697-.856zm-14.06 13.27c-1.05-.514-.711-1.929-.219-3.203.147-.343.332-.68.499-1.017.278.885.718 1.71 1.299 2.433a6.717 6.717 0 0 0 2.626 1.95 7.532 7.532 0 0 1-4.204-.164z"/></g></g></g></svg>