<svg xmlns="http://www.w3.org/2000/svg" width="16" height="19" viewBox="0 0 16 19"><g><g><g><g><path fill="#95989a" d="M13.747.88c.503 0 .912.409.912.912v15.267a.913.913 0 0 1-.912.912H2.28a.913.913 0 0 1-.912-.912V1.792c0-.503.41-.912.912-.912zm1.848 16.18V1.791a1.85 1.85 0 0 0-1.848-1.848H2.28A1.85 1.85 0 0 0 .433 1.792v15.267a1.85 1.85 0 0 0 1.847 1.848h11.467a1.85 1.85 0 0 0 1.848-1.848z"/></g></g><g><g><path fill="#95989a" d="M13.11 10.404H2.938v-7.23h10.174zm.334-7.896H2.604a.333.333 0 0 0-.334.333v7.896c0 .184.15.333.333.333h10.84a.333.333 0 0 0 .334-.333V2.841a.333.333 0 0 0-.333-.333z"/></g></g><g><g><path fill="#95989a" d="M5.324 12.582H4.13c-.366 0-.664.349-.664.778 0 .43.298.779.664.779h1.195c.367 0 .665-.35.665-.78 0-.428-.298-.777-.665-.777z"/></g></g><g><g><path fill="#95989a" d="M5.324 15.032H4.13c-.366 0-.664.35-.664.779 0 .429.298.778.664.778h1.195c.367 0 .665-.349.665-.778 0-.43-.298-.779-.665-.779z"/></g></g><g><g><path fill="#95989a" d="M8.621 12.582H7.426c-.366 0-.664.349-.664.778 0 .43.298.779.664.779h1.195c.367 0 .665-.35.665-.78 0-.428-.298-.777-.665-.777z"/></g></g><g><g><path fill="#95989a" d="M8.621 15.032H7.426c-.366 0-.664.35-.664.779 0 .429.298.778.664.778h1.195c.367 0 .665-.349.665-.778 0-.43-.298-.779-.665-.779z"/></g></g><g><g><path fill="#95989a" d="M12.08 12.582h-1.194c-.367 0-.665.349-.665.778 0 .43.298.779.665.779h1.195c.366 0 .664-.35.664-.78 0-.428-.298-.777-.664-.777z"/></g></g><g><g><path fill="#95989a" d="M12.08 15.032h-1.194c-.367 0-.665.35-.665.779 0 .429.298.778.665.778h1.195c.366 0 .664-.349.664-.778 0-.43-.298-.779-.664-.779z"/></g></g><g><path fill="#95989a" d="M2.999 3h10v7h-10z"/><path fill="none" stroke="#95989a" stroke-miterlimit="20" d="M2.999 3v0h10v7h-10v0z"/></g></g></g></svg>