<svg xmlns="http://www.w3.org/2000/svg" width="20" height="15" viewBox="0 0 20 15"><g><g><g><path fill="#95989a" d="M18.343.829c.3 0 .544.243.544.543v12.143c0 .3-.244.543-.544.543H1.571a.544.544 0 0 1-.544-.543V1.372c0-.3.244-.543.544-.543zm1.459 12.686V1.372c0-.804-.654-1.457-1.459-1.457H1.571C.767-.085.113.568.113 1.372v12.143a1.46 1.46 0 0 0 1.458 1.458h16.772a1.46 1.46 0 0 0 1.459-1.458z"/></g></g><g><g><path fill="#95989a" d="M9.94 9.727L.243 3.49l.66-1.025 9.075 5.837 9.067-5.175.603 1.059z"/></g></g></g></svg>