<svg xmlns="http://www.w3.org/2000/svg" width="18" height="21" viewBox="0 0 18 21"><g><g><g><g><path fill="#35a5f9" d="M1.403 4.672c.096-.105.284-.32.528-.599.69-.79 2.475-2.837 2.949-3.202h8.13l3.58 3.827c.045.046.093.086.143.126l.01.008.004.385c.006.416.01.766.01.981 0 3.134-.827 6.123-2.391 8.643-1.374 2.227-3.246 3.954-5.391 4.977-2.29-1.114-4.23-2.981-5.612-5.403-1.402-2.431-2.144-5.273-2.144-8.217 0-.26 0-.734.013-1.304zM8.985 20.75a.945.945 0 0 0 .367-.078c2.327-1.119 4.333-2.967 5.8-5.344 1.656-2.666 2.53-5.823 2.53-9.13 0-.217-.005-.572-.01-.993l-.007-.478c-.001-.338-.229-.522-.35-.62-.022-.018-.045-.036-.057-.048L13.411-.054H4.767c-.308 0-.461 0-3.533 3.52-.25.284-.438.5-.526.597l-.392.506-.003.15C.295 5.367.295 5.91.295 6.199c0 3.106.784 6.107 2.267 8.676 1.482 2.599 3.576 4.604 6.056 5.797l.048.02a.95.95 0 0 0 .319.058z"/></g></g><g><g><g><path fill="#35a5f9" d="M8.984 6.301a1.481 1.481 0 0 1 0 2.96c-.816 0-1.48-.664-1.48-1.48s.664-1.48 1.48-1.48zm1.427 3.096a2.15 2.15 0 0 0 .732-1.616c0-1.19-.968-2.16-2.16-2.16-1.19 0-2.158.97-2.158 2.16 0 .643.285 1.22.733 1.616v6.062c0 .188.152.34.34.34h2.173a.34.34 0 0 0 .34-.34z"/></g></g><g><g><path fill="#35a5f9" d="M12.392 10.088a.624.624 0 0 0 .613.628h.015a.624.624 0 0 0 .432-.173 3.927 3.927 0 0 0 1.228-2.867c0-1.092-.435-2.11-1.228-2.866a.62.62 0 0 0-.447-.174.622.622 0 0 0-.44.194.62.62 0 0 0-.173.448.623.623 0 0 0 .193.44c.541.516.838 1.212.838 1.958s-.297 1.442-.838 1.958a.63.63 0 0 0-.193.454z"/></g></g><g><g><path fill="#35a5f9" d="M4.53 10.542a.624.624 0 0 0 .433.175h.015a.629.629 0 0 0 .42-1.083 2.685 2.685 0 0 1-.839-1.958c0-.746.297-1.441.838-1.958a.627.627 0 1 0-.867-.908 3.929 3.929 0 0 0-1.227 2.866c0 1.093.436 2.11 1.227 2.866z"/></g></g></g></g></g></svg>