<svg xmlns="http://www.w3.org/2000/svg" width="16" height="24" viewBox="0 0 16 24"><g><g><g><g><g><path fill="#95989a" d="M10.928 4.416v5.462a3.026 3.026 0 0 1-3.024 3.024A3.027 3.027 0 0 1 4.88 9.878V4.416A3.028 3.028 0 0 1 7.904 1.39a3.027 3.027 0 0 1 3.024 3.025zm.847 5.462V4.416A3.875 3.875 0 0 0 7.905.544a3.876 3.876 0 0 0-3.873 3.872v5.462a3.876 3.876 0 0 0 3.872 3.871 3.875 3.875 0 0 0 3.87-3.871z"/></g></g></g><g><g><g><path fill="#95989a" d="M7.958 17.541c-4.402 0-7.981-3.58-7.981-7.98h1.11c0 3.788 3.082 6.87 6.87 6.87 3.788 0 6.87-3.082 6.87-6.87h1.11c0 4.4-3.58 7.98-7.98 7.98z"/></g></g></g><g><g><g><path fill="#95989a" d="M11.026 23.244H4.782a.75.75 0 0 1-.75-.75v-2.371a.75.75 0 0 1 .75-.75h6.244a.75.75 0 0 1 .749.75v2.372a.75.75 0 0 1-.749.749z"/></g></g></g><g><g><g><path fill="#95989a" d="M7.402 20.097v-3.11h1.11v3.11z"/></g></g></g></g></g></svg>