<svg xmlns="http://www.w3.org/2000/svg" width="16" height="20" viewBox="0 0 16 20"><g><g><g><g><path fill="#36348e" d="M13.72 1.18c.516 0 .937.421.937.938v15.7c0 .516-.42.937-.938.937H1.928a.938.938 0 0 1-.938-.938V2.118c0-.517.42-.937.938-.937zm1.899 16.637V2.118c0-1.047-.852-1.9-1.9-1.9H1.928c-1.048 0-1.9.853-1.9 1.9v15.7c0 1.047.852 1.899 1.9 1.899h11.791c1.048 0 1.9-.852 1.9-1.9z"/></g></g><g><g><path fill="#36348e" d="M13.064 15.265H2.604V3.54h10.46zm.343-12.41H2.26a.343.343 0 0 0-.342.342v12.41c0 .19.154.344.342.344h11.147c.19 0 .343-.154.343-.343V3.198a.342.342 0 0 0-.343-.343z"/></g></g><g><g><path fill="#36348e" d="M8.448 16.588H7.22c-.377 0-.683.36-.683.8 0 .442.306.8.683.8h1.23c.376 0 .683-.358.683-.8 0-.44-.307-.8-.684-.8z"/></g></g><g><path fill="#36348e" d="M3 15V4h10v11z"/><path fill="none" stroke="#36348e" stroke-miterlimit="20" d="M3 15v0V4v0h10v11z"/></g></g></g></svg>