<svg width="29" height="43" viewBox="0 0 29 43" fill="none" xmlns="http://www.w3.org/2000/svg">
<path d="M16.406 39.902C19.088 35.516 27.486 19.765 27.863 17.473C28.1283 16.3788 28.2625 15.2569 28.263 14.131C28.2585 10.3844 26.7681 6.79262 24.1188 4.14349C21.4695 1.49436 17.8776 0.0042343 14.131 0C10.3845 0.0042348 6.79271 1.4944 4.14355 4.14355C1.4944 6.79271 0.0042348 10.3845 0 14.131C0.000273458 15.2569 0.134545 16.3788 0.399994 17.473C0.776994 19.765 9.175 35.516 11.858 39.902L13.202 42.092C13.3 42.2502 13.4367 42.3809 13.5993 42.4715C13.7619 42.5622 13.9449 42.6098 14.131 42.61C14.3171 42.6098 14.5001 42.5622 14.6627 42.4715C14.8253 42.3809 14.962 42.2502 15.06 42.092L16.406 39.902Z" fill="#189746"/>
<path d="M14.213 2.30501C16.5864 2.30501 18.9065 3.0088 20.8799 4.32737C22.8532 5.64595 24.3913 7.52009 25.2996 9.71281C26.2078 11.9055 26.4455 14.3183 25.9824 16.6461C25.5194 18.9739 24.3765 21.1121 22.6983 22.7903C21.0201 24.4685 18.8819 25.6114 16.5541 26.0744C14.2263 26.5375 11.8135 26.2998 9.62081 25.3916C7.4281 24.4833 5.55395 22.9452 4.23538 20.9719C2.9168 18.9985 2.21301 16.6784 2.21301 14.305C2.21301 11.1224 3.47729 8.07016 5.72773 5.81973C7.97817 3.56929 11.0304 2.30501 14.213 2.30501V2.30501Z" fill="white"/>
<path d="M19.7622 17.2079H8.86206C8.42453 17.2298 7.99624 17.078 7.67017 16.7855C7.34409 16.4929 7.14666 16.0834 7.12109 15.6461V8.90203C7.14666 8.4647 7.34409 8.05518 7.67017 7.76263C7.99624 7.47008 8.42453 7.31817 8.86206 7.34002H19.7622C20.1996 7.31845 20.6278 7.47047 20.9536 7.76299C21.2795 8.05552 21.4766 8.46488 21.5022 8.90203V15.6461C21.4766 16.0832 21.2795 16.4926 20.9536 16.7851C20.6278 17.0776 20.1996 17.2295 19.7622 17.2079V17.2079ZM8.86206 8.10198C8.63804 8.09079 8.41885 8.16856 8.25195 8.31841C8.08505 8.46827 7.98411 8.6781 7.97119 8.90203V15.6461C7.98411 15.87 8.08505 16.0797 8.25195 16.2295C8.41885 16.3794 8.63804 16.4572 8.86206 16.446H19.7622C19.9863 16.4572 20.2057 16.3794 20.3728 16.2295C20.5399 16.0797 20.6409 15.8701 20.6541 15.6461V8.90203C20.6409 8.67802 20.5399 8.46824 20.3728 8.31841C20.2057 8.16859 19.9863 8.09078 19.7622 8.10198H8.86206Z" fill="#189746"/>
<path d="M23.3139 19.023H5.50391V20.334H23.3139V19.023Z" fill="#189746"/>
</svg>
