<svg xmlns="http://www.w3.org/2000/svg" width="28.264" height="42.611" viewBox="0 0 28.264 42.611">
  <defs>
    <style>
      .cls-1 {
        fill: #ffb013;
      }

      .cls-2 {
        fill: #979797;
      }
    </style>
  </defs>
  <g id="ЗСПД_2" transform="translate(-553.787 -153.695)">
    <path id="Path_1356" data-name="Path 1356" class="cls-1" d="M416.423-183.476c2.682-4.386,11.08-20.137,11.457-22.429a14.211,14.211,0,0,0,.4-3.342,14.148,14.148,0,0,0-14.132-14.131,14.147,14.147,0,0,0-14.131,14.131,14.19,14.19,0,0,0,.4,3.342c.377,2.292,8.775,18.043,11.458,22.429l1.344,2.19a1.094,1.094,0,0,0,.929.518,1.094,1.094,0,0,0,.929-.518Z" transform="translate(153.77 377.073)"/>
    <g id="Component_88_36" data-name="Component 88 – 36" transform="translate(556 156)">
      <path id="Path_1560" data-name="Path 1560" class="cls-2" d="M12,0A12,12,0,1,1,0,12,12,12,0,0,1,12,0Z"/>
    </g>
    <g id="Component_89_10" data-name="Component 89 – 10" transform="translate(559.346 158.641)">
      <g id="Group_987" data-name="Group 987" transform="translate(20914.334 2742.066)">
        <g id="Group_845" data-name="Group 845" transform="translate(-20914.334 -2742.066)">
          <path id="Path_1484" data-name="Path 1484" class="cls-1" d="M-3274.433,2008.823a.95.95,0,0,1-.319-.057l-.047-.02a14.055,14.055,0,0,1-6.057-5.8,17.362,17.362,0,0,1-2.267-8.677c0-.288,0-.831.018-1.48l0-.15.392-.506c.088-.1.277-.313.526-.6,3.072-3.519,3.225-3.519,3.533-3.519h8.644l3.848,4.113a.73.73,0,0,0,.056.047.788.788,0,0,1,.351.621l.007.478c.005.421.01.776.01.993a17.263,17.263,0,0,1-2.53,9.13,14.03,14.03,0,0,1-5.8,5.344A.945.945,0,0,1-3274.433,2008.823Zm-7.752-15.856c-.013.57-.013,1.044-.013,1.3a16.449,16.449,0,0,0,2.144,8.217,13.153,13.153,0,0,0,5.612,5.4,13.005,13.005,0,0,0,5.391-4.977,16.349,16.349,0,0,0,2.392-8.643c0-.215,0-.565-.01-.981l0-.385-.01-.008a1.66,1.66,0,0,1-.143-.126l-3.58-3.827h-8.13c-.473.365-2.259,2.411-2.949,3.2-.244.279-.432.494-.527.6Zm3.7-4.061" transform="translate(3283.123 -1988.019)"/>
        </g>
        <g id="Group_861" data-name="Group 861" transform="translate(-20911.326 -2737.376)">
          <g id="Group_858" data-name="Group 858" transform="translate(3.522 0.986)">
            <path id="Path_1496" data-name="Path 1496" class="cls-1" d="M-3258.355,2010.213a2.15,2.15,0,0,0,.732-1.616,2.161,2.161,0,0,0-2.159-2.159,2.162,2.162,0,0,0-2.159,2.159,2.153,2.153,0,0,0,.733,1.616v6.062a.34.34,0,0,0,.34.34h2.174a.339.339,0,0,0,.34-.34Zm-1.427-3.1a1.481,1.481,0,0,1,1.48,1.48,1.481,1.481,0,0,1-1.48,1.48,1.482,1.482,0,0,1-1.479-1.48A1.481,1.481,0,0,1-3259.782,2007.117Z" transform="translate(3261.942 -2006.438)"/>
          </g>
          <g id="Group_859" data-name="Group 859" transform="translate(9.089 0)">
            <path id="Path_1497" data-name="Path 1497" class="cls-1" d="M-3243.875,2008.69a.624.624,0,0,0,.174.434.626.626,0,0,0,.439.194h.015a.624.624,0,0,0,.433-.174,3.927,3.927,0,0,0,1.228-2.867,3.925,3.925,0,0,0-1.228-2.866.619.619,0,0,0-.448-.174.622.622,0,0,0-.439.194.62.62,0,0,0-.174.448.623.623,0,0,0,.194.44,2.682,2.682,0,0,1,.838,1.958,2.684,2.684,0,0,1-.838,1.958A.63.63,0,0,0-3243.875,2008.69Z" transform="translate(3243.875 -2003.237)"/>
          </g>
          <g id="Group_860" data-name="Group 860" transform="translate(0 0)">
            <path id="Path_1498" data-name="Path 1498" class="cls-1" d="M-3272.144,2009.143a.624.624,0,0,0,.433.175h.014a.629.629,0,0,0,.44-.194.63.63,0,0,0,.174-.434.63.63,0,0,0-.194-.454,2.685,2.685,0,0,1-.838-1.958,2.685,2.685,0,0,1,.838-1.959.627.627,0,0,0,.194-.44.622.622,0,0,0-.174-.448.625.625,0,0,0-.44-.194.617.617,0,0,0-.448.174,3.929,3.929,0,0,0-1.227,2.867A3.927,3.927,0,0,0-3272.144,2009.143Z" transform="translate(3273.372 -2003.237)"/>
          </g>
        </g>
      </g>
    </g>
  </g>
</svg>
