<svg xmlns="http://www.w3.org/2000/svg" width="28.264" height="42.611" viewBox="0 0 28.264 42.611">
  <defs>
    <style>
      .cls-1 {
        fill: #147774;
      }

      .cls-2 {
        fill: #fff;
      }
    </style>
  </defs>
  <g id="СЗО_1" transform="translate(-553.787 -153.695)">
    <path id="Path_1356" data-name="Path 1356" class="cls-1" d="M416.423-183.476c2.682-4.386,11.08-20.137,11.457-22.429a14.211,14.211,0,0,0,.4-3.342,14.148,14.148,0,0,0-14.132-14.131,14.147,14.147,0,0,0-14.131,14.131,14.19,14.19,0,0,0,.4,3.342c.377,2.292,8.775,18.043,11.458,22.429l1.344,2.19a1.094,1.094,0,0,0,.929.518,1.094,1.094,0,0,0,.929-.518Z" transform="translate(153.77 377.073)"/>
    <g id="Component_88_32" data-name="Component 88 – 32" transform="translate(556 156)">
      <path id="Path_1560" data-name="Path 1560" class="cls-2" d="M12,0A12,12,0,1,1,0,12,12,12,0,0,1,12,0Z"/>
    </g>
    <g id="Component_90_16" data-name="Component 90 – 16" transform="translate(560.377 159.93)">
      <g id="Group_988" data-name="Group 988" transform="translate(20882.629 2718.464)">
        <g id="Group_914" data-name="Group 914" transform="translate(-20882.629 -2718.464)">
          <g id="Group_911" data-name="Group 911" transform="translate(1.589 0.95)">
            <g id="Group_910" data-name="Group 910">
              <path id="Path_1540" data-name="Path 1540" class="cls-1" d="M-3263.926,2082.322h-10.02a.878.878,0,0,1-.876-.877v-10.02a.873.873,0,0,1,.542-.811.873.873,0,0,1,.955.19l10.02,10.021a.877.877,0,0,1,.19.956A.873.873,0,0,1-3263.926,2082.322Zm-10-.9h9.942l-9.955-9.954Z" transform="translate(3274.823 -2070.547)"/>
            </g>
          </g>
          <g id="Group_912" data-name="Group 912" transform="translate(6.036 0)">
            <path id="Path_1541" data-name="Path 1541" class="cls-1" d="M-3252.433,2067.381a1.7,1.7,0,0,0-1.3.6h-5.347a.925.925,0,0,0-.924.924.925.925,0,0,0,.924.924h5.1a1.726,1.726,0,0,0,.72.761v5.063a.926.926,0,0,0,.925.925.926.926,0,0,0,.924-.925v-5.2a1.7,1.7,0,0,0,.677-1.358A1.71,1.71,0,0,0-3252.433,2067.381Zm0,2.733a1.026,1.026,0,0,1-1.025-1.024,1.026,1.026,0,0,1,1.025-1.025,1.026,1.026,0,0,1,1.025,1.025A1.026,1.026,0,0,1-3252.433,2070.114Z" transform="translate(3259.999 -2067.381)"/>
          </g>
          <g id="Group_913" data-name="Group 913" transform="translate(0 12.275)">
            <path id="Path_1542" data-name="Path 1542" class="cls-1" d="M-3280.088,2111.909a.427.427,0,0,0,.395.264h9.668a.427.427,0,0,0,.395-.264.427.427,0,0,0-.093-.465l-3.143-3.144h-1.208l3.018,3.018h-7.605l3.018-3.018h-1.208l-3.143,3.144A.427.427,0,0,0-3280.088,2111.909Z" transform="translate(3280.12 -2108.3)"/>
          </g>
        </g>
      </g>
    </g>
  </g>
</svg>
