<svg width="29" height="43" viewBox="0 0 29 43" fill="none" xmlns="http://www.w3.org/2000/svg">
<g clip-path="url(#clip0)">
<path d="M16.4133 39.905C19.1133 35.505 27.5133 19.805 27.9133 17.505C28.2133 16.405 28.3132 15.305 28.3132 14.205C28.3132 6.40497 22.0133 0.10498 14.2133 0.10498C6.41326 0.10498 0.113281 6.40497 0.113281 14.205C0.113281 15.305 0.213245 16.405 0.513245 17.505C0.913245 19.805 9.31324 35.505 12.0132 39.905L13.3132 42.105C13.5132 42.405 13.9133 42.605 14.2133 42.605C14.6133 42.605 14.9133 42.405 15.1133 42.105L16.4133 39.905Z" fill="#FF5353"/>
<path d="M14.2134 2.30499C20.8134 2.30499 26.2134 7.70499 26.2134 14.305C26.2134 20.905 20.8134 26.305 14.2134 26.305C7.61338 26.305 2.21338 20.905 2.21338 14.305C2.21338 7.70499 7.61338 2.30499 14.2134 2.30499Z" fill="white"/>
<path d="M22.4 21.8738H15.8V17.1738H12.5V21.8738H6V9.57383H9.6V7.17383L14.2 4.67383L18.8 7.17383V9.57383H22.4V21.8738ZM16.7 20.9738H21.6V10.4738H18V7.67383L14.2 5.67383L10.5 7.67383V10.4738H6.8V21.0738H11.7V16.3738H16.7V20.9738Z" fill="#FF5353"/>
<path d="M15.8961 16.769H12.4961V21.469H15.8961V16.769Z" fill="#FF5353"/>
<path d="M10.473 18.369H8.87305V16.769H10.473V18.369ZM10.473 14.669H8.87305V13.169H10.473V14.669ZM13.573 14.669H11.973V13.169H13.573V14.669ZM12.873 10.569V7.96899H15.473V10.569H12.873ZM16.673 14.669H15.073V13.169H16.673V14.669V14.669ZM19.773 18.369H18.173V16.769H19.773V18.369ZM19.773 14.669H18.173V13.169H19.773V14.669Z" fill="#FF5353"/>
</g>
<defs>
<clipPath id="clip0">
<rect width="28.3" height="42.6" fill="white"/>
</clipPath>
</defs>
</svg>
