<svg xmlns="http://www.w3.org/2000/svg" width="28.264" height="42.611" viewBox="0 0 28.264 42.611">
  <defs>
    <style>
      .cls-1 {
        fill: #ff5353;
      }

      .cls-2 {
        fill: #fff;
      }
    </style>
  </defs>
  <g id="ЕСПД_1" transform="translate(22521.264 2500)">
    <g id="Group_1003" data-name="Group 1003" transform="translate(-23075.051 -2653.695)">
      <path id="Path_1356" data-name="Path 1356" class="cls-1" d="M416.423-183.476c2.682-4.386,11.08-20.137,11.457-22.429a14.211,14.211,0,0,0,.4-3.342,14.148,14.148,0,0,0-14.132-14.131,14.147,14.147,0,0,0-14.131,14.131,14.19,14.19,0,0,0,.4,3.342c.377,2.292,8.775,18.043,11.458,22.429l1.344,2.19a1.094,1.094,0,0,0,.929.518,1.094,1.094,0,0,0,.929-.518Z" transform="translate(153.77 377.073)"/>
      <g id="Component_88_27" data-name="Component 88 – 27" transform="translate(556 156)">
        <path id="Path_1560" data-name="Path 1560" class="cls-2" d="M12,0A12,12,0,1,1,0,12,12,12,0,0,1,12,0Z"/>
      </g>
    </g>
    <g id="Group_985" data-name="Group 985" transform="translate(-1631.322 261.211)">
      <g id="Group_840" data-name="Group 840" transform="translate(-20883.941 -2756.537)">
        <path id="Path_1481" data-name="Path 1481" class="cls-1" d="M-3269.354,1922.122h-6.526v-4.658h-3.31v4.658h-6.526V1909.9h3.624v-2.417l4.557-2.532,4.558,2.532v2.417h3.624Zm-5.694-.832h4.863v-10.556h-3.624v-2.76l-3.726-2.07-3.725,2.07v2.76h-3.624v10.556h4.863v-4.659h4.973Z" transform="translate(3285.716 -1904.953)"/>
      </g>
      <g id="Group_843" data-name="Group 843" transform="translate(-20877.445 -2744.442)">
        <rect id="Rectangle_2697" data-name="Rectangle 2697" class="cls-1" width="3.368" height="4.659"/>
      </g>
      <g id="Group_844" data-name="Group 844" transform="translate(-20881.068 -2753.242)">
        <path id="Path_1483" data-name="Path 1483" class="cls-1" d="M-3273.792,1927.189h-1.553v-1.553h1.553Zm0-3.624h-1.553v-1.553h1.553Zm3.106,0h-1.554v-1.553h1.554Zm-.647-4.141v-2.588h2.589v2.588Zm3.753,4.141h-1.553v-1.553h1.553Zm3.106,3.624h-1.553v-1.553h1.553Zm0-3.624h-1.553v-1.553h1.553Z" transform="translate(3275.346 -1916.836)"/>
      </g>
    </g>
  </g>
</svg>
