<?xml version="1.0" encoding="utf-8"?>
<!-- Generator: Adobe Illustrator 23.1.0, SVG Export Plug-In . SVG Version: 6.00 Build 0)  -->
<svg version="1.1" id="Слой_1" xmlns="http://www.w3.org/2000/svg" xmlns:xlink="http://www.w3.org/1999/xlink" x="0px" y="0px"
	 viewBox="0 0 28.3 42.6" style="enable-background:new 0 0 28.3 42.6;" xml:space="preserve">
<style type="text/css">
	.st0{fill:#FF9900;}
	.st1{fill:#E4EADF;}
</style>
<g id="ЕСПД_3" transform="translate(22443.264 2500)">
	<g id="Group_1006" transform="translate(-22997.051 -2653.695)">
		<path id="Path_1356" class="st0" d="M570.2,193.6c2.7-4.4,11.1-20.1,11.5-22.4c0.3-1.1,0.4-2.2,0.4-3.3c0-7.8-6.3-14.1-14.1-14.1
			c-7.8,0-14.1,6.3-14.1,14.1c0,1.1,0.1,2.2,0.4,3.3c0.4,2.3,8.8,18,11.5,22.4l1.3,2.2c0.2,0.3,0.6,0.5,0.9,0.5
			c0.4,0,0.7-0.2,0.9-0.5L570.2,193.6z"/>
		<g id="Component_88_29" transform="translate(556 156)">
			<path id="Path_1560" class="st1" d="M12,0c6.6,0,12,5.4,12,12s-5.4,12-12,12S0,18.6,0,12S5.4,0,12,0z"/>
		</g>
	</g>
	<g id="Group_1007" transform="translate(-1553.322 261.211)">
		<g id="Group_840" transform="translate(-20883.941 -2756.537)">
			<path id="Path_1481" class="st0" d="M16.4,17.2H9.8v-4.7H6.5v4.7H0V4.9h3.6V2.5L8.2,0l4.6,2.5v2.4h3.6L16.4,17.2z M10.7,16.3h4.9
				V5.8h-3.6V3L8.2,1L4.5,3v2.8H0.8v10.6h4.9v-4.7h5L10.7,16.3z"/>
		</g>
		<g id="Group_843" transform="translate(-20877.445 -2744.442)">
			<rect id="Rectangle_2697" x="0" y="0" class="st0" width="3.4" height="4.7"/>
		</g>
		<g id="Group_844" transform="translate(-20881.068 -2753.242)">
			<path id="Path_1483" class="st0" d="M1.6,10.4H0V8.8h1.6V10.4z M1.6,6.7H0V5.2h1.6V6.7z M4.7,6.7H3.1V5.2h1.6V6.7z M4,2.6V0h2.6
				v2.6H4z M7.8,6.7H6.2V5.2h1.6V6.7z M10.9,10.4H9.3V8.8h1.6V10.4z M10.9,6.7H9.3V5.2h1.6V6.7z"/>
		</g>
	</g>
</g>
</svg>
